<svg viewBox="0 0 256 226" xmlns="http://www.w3.org/2000/svg">
  <defs>
      <linearGradient
        id="a" x1="-2.89" x2="-2.89" y1="-3.27" y2="243.1"
        gradientTransform="matrix(.96759 0 0 .85402 11.603 10.595)" gradientUnits="userSpaceOnUse" spreadMethod="pad"
      >
        <stop offset="0%" stop-color="#f87171" />
        <stop offset="20%" stop-color="#fb923c" />
        <stop offset="40%" stop-color="#facc15" />
        <stop offset="60%" stop-color="#4ade80" />
        <stop offset="80%" stop-color="#60a5fa" />
        <stop offset="100%" stop-color="#a78bfa" />
      </linearGradient>
    </defs>
  <path fill="none" stroke="url(#a)" stroke-linecap="round" stroke-linejoin="round" stroke-width="21.1875"
    d="M62.063 24.38c26.694 20.028 55.4 60.62 65.942 82.41 10.54-21.79 39.248-62.382 65.941-82.41 19.25-14.447 50.451-25.625 50.451 9.943 0 7.104-4.067 59.679-6.455 68.22-8.316 29.673-38.596 37.237-65.529 32.654 47.085 8.005 59.055 34.533 33.187 61.05-49.118 50.38-70.603-12.635-76.109-28.78-1.007-2.962-1.477-4.343-1.486-3.164 0-1.179-.48.202-1.487 3.164-5.505 16.145-26.99 79.16-76.108 28.78-25.868-26.517-13.898-53.045 33.186-61.05-26.933 4.583-57.213-2.981-65.529-32.653-2.388-8.533-6.464-61.117-6.464-68.221 0-35.568 31.21-24.39 50.46-9.942" />
</svg>
